# xmcd CD database file
#
# Track frame offsets:
#	150
#	9435
#	26535
#	48315
#	79330
#	89931
#	115657
#	139943
#	150251
#	162811
#	181542
#	201810
#	225598
#	246523
#	272078
#	314596
#	332277
#
# Disc length: 4716 seconds
#
# Revision: 0
# Processed by: cddbd v1.5.2PL0 Copyright (c) Steve Scherf et al.
# Submitted via: CDex 1.70beta3
#
DISCID=d8126a11
DTITLE=ムック - 朽木の灯 ライブ アット 六本木
DYEAR=2005
DGENRE=Visual Rock
TTITLE0=朽木の灯
TTITLE1=誰も居ない家
TTITLE2=遺書
TTITLE3=未完の絵画
TTITLE4=濁空
TTITLE5=幻燈讃歌
TTITLE6=暁闇
TTITLE7=2.07
TTITLE8=ガロ
TTITLE9=悲シミノ果テ
TTITLE10=路地裏 僕と君へ
TTITLE11=溺れる魚
TTITLE12=名も無き夢
TTITLE13=モノクロの景色
TTITLE14=朽木の塔
TTITLE15=蘭鋳
TTITLE16=ママ
EXTD=YEAR: 2005
EXTT0=
EXTT1=
EXTT2=
EXTT3=
EXTT4=
EXTT5=
EXTT6=
EXTT7=
EXTT8=
EXTT9=
EXTT10=
EXTT11=
EXTT12=
EXTT13=
EXTT14=
EXTT15=
EXTT16=
PLAYORDER=
